<svg viewBox="0 0 48 48" fill="none" xmlns="http://www.w3.org/2000/svg"><path d="M14.393 46a24.032 24.032 0 0 1-6.95-4.625l8.491-8.49c-.494-.449-.95-.939-1.364-1.463l-8.516 8.514A24.02 24.02 0 0 1 2 33.606V45a1 1 0 0 0 1 1h11.393ZM14.65 16.478l-8.51-8.51A24.021 24.021 0 0 0 2 14.393V3a1 1 0 0 1 1-1h11.393a24.032 24.032 0 0 0-6.856 4.537l8.493 8.492c-.5.444-.96.928-1.38 1.449ZM31.422 14.57c.525.413 1.014.87 1.463 1.364l8.49-8.49A24.034 24.034 0 0 1 46 14.394V3a1 1 0 0 0-1-1H33.607a24.02 24.02 0 0 1 6.33 4.055l-8.515 8.515ZM32.971 31.97c-.443.499-.928.96-1.448 1.38l8.51 8.51A24.023 24.023 0 0 1 33.607 46H45a1 1 0 0 0 1-1V33.607a24.03 24.03 0 0 1-4.536 6.856L32.97 31.97Z" fill="#999"/></svg>